<svg width="240" height="240" viewBox="0 0 240 240" fill="none" xmlns="http://www.w3.org/2000/svg">
<path d="M119.984 119.984L119.984 0C135.468 0 150.805 2.997 165.15 8.82566L119.984 119.984Z" fill="#277C78"/>
<path d="M119.984 119.984L165.15 8.82565C226.542 33.7702 256.087 103.759 231.143 165.15C206.198 226.541 136.209 256.087 74.8181 231.142C47.9302 220.217 25.9136 199.917 12.8474 174.001L119.984 119.984Z" fill="#82C9D7"/>
<path d="M119.984 119.984L12.8474 174.001C-6.20309 136.217 -3.94214 91.1917 18.7976 55.5058L119.984 119.984Z" fill="#F2CDAC"/>
<path d="M119.984 119.984L18.7976 55.5058C40.8288 20.932 78.9876 0 119.984 0V119.984Z" fill="#626070"/>
</svg>
